<?xml version="1.0" standalone="no"?>
<!DOCTYPE svg PUBLIC "-//W3C//DTD SVG 20010904//EN"
 "http://www.w3.org/TR/2001/REC-SVG-20010904/DTD/svg10.dtd">
<svg version="1.0" xmlns="http://www.w3.org/2000/svg"
 width="225.000000pt" height="225.000000pt" viewBox="0 0 225.000000 225.000000"
 preserveAspectRatio="xMidYMid meet">

<g transform="translate(0.000000,225.000000) scale(0.100000,-0.100000)"
fill="#000000" stroke="none">
<path d="M1040 2243 c-449 -40 -823 -327 -973 -750 -80 -223 -80 -513 0 -736
231 -648 967 -939 1577 -624 301 155 518 447 582 784 22 115 22 301 0 416 -75
393 -352 715 -733 850 -123 44 -328 72 -453 60z m297 -204 c107 -24 188 -58
282 -116 149 -93 298 -263 367 -419 99 -223 103 -505 9 -735 -84 -207 -284
-413 -491 -505 -229 -102 -529 -102 -758 0 -96 43 -217 129 -297 213 -176 184
-261 396 -261 648 0 252 85 464 261 648 233 243 560 342 888 266z"/>
<path d="M678 1486 c-129 -35 -208 -149 -208 -298 l0 -58 90 0 90 0 0 50 c0
65 22 108 66 126 72 30 134 -27 134 -126 l0 -50 91 0 92 0 -5 78 c-5 92 -30
154 -83 207 -69 68 -175 97 -267 71z"/>
<path d="M1428 1486 c-129 -35 -208 -149 -208 -298 l0 -58 90 0 90 0 0 50 c0
65 22 108 66 126 72 30 134 -27 134 -126 l0 -50 91 0 92 0 -5 78 c-5 92 -30
154 -83 207 -69 68 -175 97 -267 71z"/>
<path d="M685 861 c-27 -32 -51 -63 -53 -69 -4 -14 85 -89 160 -135 106 -64
181 -82 338 -82 121 0 143 3 208 27 41 15 98 41 128 60 60 36 154 114 154 128
0 10 -97 123 -109 128 -5 2 -33 -18 -62 -43 -109 -94 -217 -131 -360 -123 -74
5 -100 11 -161 41 -40 19 -97 55 -126 81 -30 25 -57 46 -60 46 -4 0 -29 -27
-57 -59z"/>
</g>
</svg>
