<?xml version="1.0" standalone="no"?>
<!DOCTYPE svg PUBLIC "-//W3C//DTD SVG 20010904//EN"
 "http://www.w3.org/TR/2001/REC-SVG-20010904/DTD/svg10.dtd">
<svg version="1.0" xmlns="http://www.w3.org/2000/svg"
 width="225.000000pt" height="225.000000pt" viewBox="0 0 225.000000 225.000000"
 preserveAspectRatio="xMidYMid meet">

<g transform="translate(0.000000,225.000000) scale(0.100000,-0.100000)"
fill="#000000" stroke="none">
<path d="M125 1991 c-22 -10 -52 -31 -67 -47 -60 -64 -58 -37 -58 -821 0 -678
1 -720 19 -758 10 -22 31 -52 47 -67 65 -61 13 -58 1061 -58 911 0 960 1 998
19 22 10 52 31 67 47 60 64 58 37 58 819 0 782 2 755 -58 819 -15 16 -45 37
-67 47 -38 18 -87 19 -1000 19 -913 0 -962 -1 -1000 -19z m1955 -156 c23 -28
7 -134 -31 -205 -51 -97 -102 -146 -383 -368 -144 -114 -297 -235 -340 -271
-81 -64 -164 -111 -201 -111 -37 0 -120 47 -201 111 -43 36 -196 157 -339 270
-143 114 -279 226 -303 250 -59 60 -110 168 -118 246 -5 44 -3 67 6 78 11 13
123 15 955 15 830 0 944 -2 955 -15z m-1670 -638 c96 -75 247 -195 335 -267
166 -136 245 -183 330 -199 118 -22 214 22 430 199 88 72 239 192 335 267 96
75 192 152 213 172 l37 35 0 -490 c0 -368 -3 -493 -12 -502 -17 -17 -1889 -17
-1906 0 -9 9 -12 134 -12 502 l0 490 38 -35 c20 -20 116 -97 212 -172z"/>
</g>
</svg>
