<?xml version="1.0" standalone="no"?>
<!DOCTYPE svg PUBLIC "-//W3C//DTD SVG 20010904//EN"
 "http://www.w3.org/TR/2001/REC-SVG-20010904/DTD/svg10.dtd">
<svg version="1.0" xmlns="http://www.w3.org/2000/svg"
 width="225.000000pt" height="225.000000pt" viewBox="0 0 225.000000 225.000000"
 preserveAspectRatio="xMidYMid meet">

<g transform="translate(0.000000,225.000000) scale(0.100000,-0.100000)"
fill="#000000" stroke="none">
<path d="M860 2180 c-235 -29 -460 -156 -597 -335 -64 -84 -124 -203 -153
-305 -28 -97 -37 -272 -20 -377 56 -349 311 -624 666 -719 101 -27 320 -25
426 4 75 20 195 73 250 109 l28 18 227 -227 c126 -125 241 -232 256 -237 71
-27 159 3 199 67 16 27 19 45 16 93 l-4 60 -232 232 -232 232 54 106 c68 135
88 214 94 365 9 242 -68 458 -228 637 -172 194 -487 310 -750 277z m273 -340
c169 -52 326 -217 372 -391 19 -70 19 -220 0 -292 -32 -124 -113 -237 -227
-317 -106 -74 -177 -95 -323 -94 -106 0 -128 4 -189 27 -129 51 -236 144 -304
267 -89 159 -83 391 13 550 40 65 131 156 199 199 127 79 304 99 459 51z"/>
</g>
</svg>
