<?xml version="1.0" standalone="no"?>
<!DOCTYPE svg PUBLIC "-//W3C//DTD SVG 20010904//EN"
 "http://www.w3.org/TR/2001/REC-SVG-20010904/DTD/svg10.dtd">
<svg version="1.0" xmlns="http://www.w3.org/2000/svg"
 width="225.000000pt" height="225.000000pt" viewBox="0 0 225.000000 225.000000"
 preserveAspectRatio="xMidYMid meet">

<g transform="translate(0.000000,225.000000) scale(0.100000,-0.100000)"
fill="#000000" stroke="none">
<path d="M340 1125 l0 -1005 785 0 785 0 0 753 0 752 -253 253 -252 252 -533
0 -532 0 0 -1005z m1010 710 l0 -255 255 0 255 0 0 -710 0 -710 -735 0 -735 0
0 965 0 965 480 0 480 0 0 -255z m275 8 l209 -213 -217 0 -217 0 0 215 c0 118
3 214 8 213 4 0 101 -97 217 -215z"/>
</g>
</svg>
