<?xml version="1.0" standalone="no"?>
<!DOCTYPE svg PUBLIC "-//W3C//DTD SVG 20010904//EN"
 "http://www.w3.org/TR/2001/REC-SVG-20010904/DTD/svg10.dtd">
<svg version="1.0" xmlns="http://www.w3.org/2000/svg"
 width="225.000000pt" height="225.000000pt" viewBox="0 0 225.000000 225.000000"
 preserveAspectRatio="xMidYMid meet">

<g transform="translate(0.000000,225.000000) scale(0.100000,-0.100000)"
fill="#000000" stroke="none">
<path d="M25 2015 c-24 -24 -25 -28 -25 -183 0 -146 2 -162 21 -186 l20 -26
170 0 c224 0 209 -15 209 209 l0 170 -26 20 c-24 19 -40 21 -186 21 -155 0
-159 -1 -183 -25z"/>
<path d="M609 1979 c-41 -15 -51 -54 -47 -169 3 -93 5 -103 27 -121 22 -18 51
-19 818 -19 l794 0 24 25 c24 23 25 31 25 133 0 93 -3 113 -19 133 l-19 24
-789 2 c-496 1 -798 -2 -814 -8z"/>
<path d="M16 1308 c-13 -18 -16 -54 -16 -183 0 -220 -16 -205 210 -205 226 0
210 -15 210 205 0 220 16 205 -210 205 -173 0 -179 -1 -194 -22z"/>
<path d="M581 1254 c-18 -23 -21 -41 -21 -129 0 -88 3 -106 21 -129 l20 -26
802 0 c441 0 807 4 813 8 25 16 34 56 34 147 0 91 -9 131 -34 147 -6 4 -372 8
-813 8 l-802 0 -20 -26z"/>
<path d="M21 604 c-19 -24 -21 -40 -21 -186 0 -155 1 -159 25 -183 24 -24 28
-25 183 -25 146 0 162 2 186 21 l26 20 0 170 c0 224 15 209 -209 209 l-170 0
-20 -26z"/>
<path d="M589 561 c-22 -18 -24 -28 -27 -121 -5 -125 6 -156 57 -170 24 -8
288 -10 814 -8 l779 3 19 24 c16 20 19 40 19 133 0 102 -1 110 -25 133 l-24
25 -794 0 c-767 0 -796 -1 -818 -19z"/>
</g>
</svg>
