<?xml version="1.0" standalone="no"?>
<!DOCTYPE svg PUBLIC "-//W3C//DTD SVG 20010904//EN"
 "http://www.w3.org/TR/2001/REC-SVG-20010904/DTD/svg10.dtd">
<svg version="1.0" xmlns="http://www.w3.org/2000/svg"
 width="225.000000pt" height="225.000000pt" viewBox="0 0 225.000000 225.000000"
 preserveAspectRatio="xMidYMid meet">

<g transform="translate(0.000000,225.000000) scale(0.100000,-0.100000)"
fill="#000000" stroke="none">
<path d="M993 2190 c-316 -57 -560 -335 -580 -658 -13 -215 44 -433 189 -730
l71 -144 30 31 31 30 -67 139 c-160 335 -211 611 -149 809 l20 62 -24 22 c-13
12 -24 27 -24 33 0 5 12 -2 28 -17 l27 -26 30 57 c17 32 63 90 105 133 249
251 641 251 890 0 50 -51 88 -100 114 -149 l38 -74 29 28 c16 15 29 32 29 38
0 26 -90 157 -150 216 -131 132 -288 199 -475 205 -60 2 -133 0 -162 -5z"/>
<path d="M1033 1736 c-111 -36 -197 -131 -210 -233 -4 -34 0 -42 36 -78 l41
-39 0 54 c1 71 26 127 79 171 90 78 215 76 300 -4 52 -49 71 -100 71 -190 0
-44 4 -76 9 -73 15 10 41 -5 41 -23 1 -31 20 15 31 74 24 128 -47 262 -174
326 -51 27 -166 34 -224 15z"/>
<path d="M1756 1721 l-27 -28 15 -76 c9 -42 16 -103 16 -135 0 -85 -28 -233
-65 -347 -32 -99 -122 -308 -152 -354 -14 -22 -13 -25 13 -52 15 -16 31 -29
34 -29 11 0 127 249 165 354 61 169 79 263 79 421 0 108 -4 154 -18 203 -10
34 -22 65 -26 67 -4 2 -19 -8 -34 -24z"/>
<path d="M810 1440 c0 -37 33 -136 58 -173 36 -55 102 -103 163 -121 56 -17
75 -13 82 15 7 26 51 25 77 -1 11 -11 23 -20 28 -20 4 0 13 9 20 20 7 11 19
20 27 20 8 0 15 5 15 10 0 13 -13 13 -46 -2 -23 -11 -29 -10 -43 7 -11 14 -26
19 -50 17 -19 -2 -55 2 -80 9 -45 13 -63 28 -191 169 -33 36 -60 58 -60 50z"/>
<path d="M1337 1314 c-15 -15 -7 -45 11 -42 9 2 17 12 17 22 0 20 -16 31 -28
20z"/>
<path d="M1271 1266 c-13 -14 -33 -28 -43 -32 -10 -3 -16 -10 -12 -15 3 -6 15
-4 30 6 30 19 62 12 66 -16 3 -20 4 -19 28 7 14 15 19 24 13 20 -18 -10 -51
11 -55 35 -3 20 -4 20 -27 -5z"/>
<path d="M1135 1140 c-4 -6 3 -10 14 -10 25 0 27 6 6 13 -8 4 -17 2 -20 -3z"/>
<path d="M1465 643 c-80 -135 -179 -280 -265 -392 l-73 -95 -39 45 c-59 68
-205 275 -279 398 l-67 109 -30 -31 -30 -32 75 -119 c153 -244 333 -476 368
-476 36 0 263 301 396 526 l62 106 -30 29 -30 30 -58 -98z"/>
</g>
</svg>
