<?xml version="1.0" standalone="no"?>
<!DOCTYPE svg PUBLIC "-//W3C//DTD SVG 20010904//EN"
 "http://www.w3.org/TR/2001/REC-SVG-20010904/DTD/svg10.dtd">
<svg version="1.0" xmlns="http://www.w3.org/2000/svg"
 width="172.000000pt" height="130.000000pt" viewBox="0 0 172.000000 130.000000"
 preserveAspectRatio="xMidYMid meet">

<g transform="translate(0.000000,130.000000) scale(0.100000,-0.100000)"
fill="#000000" stroke="none">
<path d="M387 1098 c34 -45 351 -475 357 -486 5 -8 -50 -75 -161 -195 -92
-100 -177 -192 -187 -205 l-19 -22 39 0 c39 0 44 5 204 180 91 99 167 180 170
180 3 0 65 -81 137 -180 l133 -180 140 0 c77 0 140 2 140 5 0 2 -85 118 -188
257 -104 139 -191 258 -195 265 -4 7 60 85 163 196 93 102 170 188 170 191 0
9 -63 7 -75 -2 -5 -4 -59 -61 -120 -127 -183 -199 -185 -201 -193 -189 -4 7
-59 82 -122 168 l-115 155 -144 1 c-113 0 -141 -3 -134 -12z m338 -171 c49
-67 181 -245 292 -395 112 -150 203 -275 203 -277 0 -3 -29 -5 -64 -5 l-64 0
-159 213 c-244 326 -407 545 -422 567 -13 19 -11 20 55 20 l69 -1 90 -122z"/>
</g>
</svg>
