<?xml version="1.0" standalone="no"?>
<!DOCTYPE svg PUBLIC "-//W3C//DTD SVG 20010904//EN"
 "http://www.w3.org/TR/2001/REC-SVG-20010904/DTD/svg10.dtd">
<svg version="1.0" xmlns="http://www.w3.org/2000/svg"
 width="119.000000pt" height="119.000000pt" viewBox="0 0 119.000000 119.000000"
 preserveAspectRatio="xMidYMid meet">

<g transform="translate(0.000000,119.000000) scale(0.100000,-0.100000)"
fill="#000000" stroke="none">
<path d="M143 695 c-17 -7 -39 -27 -47 -44 -49 -93 32 -193 130 -161 92 31 98
169 9 206 -42 17 -51 17 -92 -1z"/>
<path d="M542 690 c-40 -25 -67 -78 -58 -115 9 -35 56 -82 91 -91 54 -14 135
53 135 111 0 49 -68 115 -117 115 -10 0 -33 -9 -51 -20z"/>
<path d="M953 695 c-17 -7 -39 -27 -47 -44 -49 -93 32 -193 130 -161 92 31 98
169 9 206 -42 17 -51 17 -92 -1z"/>
</g>
</svg>
