<?xml version="1.0" standalone="no"?>
<!DOCTYPE svg PUBLIC "-//W3C//DTD SVG 20010904//EN"
 "http://www.w3.org/TR/2001/REC-SVG-20010904/DTD/svg10.dtd">
<svg version="1.0" xmlns="http://www.w3.org/2000/svg"
 width="225.000000pt" height="225.000000pt" viewBox="0 0 225.000000 225.000000"
 preserveAspectRatio="xMidYMid meet">

<g transform="translate(0.000000,225.000000) scale(0.100000,-0.100000)"
fill="#000000" stroke="none">
<path d="M270 1431 c-85 -26 -164 -93 -202 -170 -33 -66 -33 -206 0 -272 115
-234 444 -237 562 -5 31 60 34 77 34 142 -1 99 -45 190 -119 246 -77 59 -193
84 -275 59z"/>
<path d="M1023 1422 c-264 -94 -286 -456 -35 -579 48 -24 70 -28 137 -28 67 0
89 4 137 28 65 32 121 90 151 156 30 65 30 187 0 252 -67 148 -241 224 -390
171z"/>
<path d="M1793 1422 c-78 -28 -137 -81 -175 -159 -125 -255 122 -530 389 -432
76 28 162 114 186 184 21 61 22 158 1 218 -21 61 -94 141 -158 174 -68 35
-170 41 -243 15z"/>
</g>
</svg>
