<?xml version="1.0" standalone="no"?>
<!DOCTYPE svg PUBLIC "-//W3C//DTD SVG 20010904//EN"
 "http://www.w3.org/TR/2001/REC-SVG-20010904/DTD/svg10.dtd">
<svg version="1.0" xmlns="http://www.w3.org/2000/svg"
 width="121.000000pt" height="121.000000pt" viewBox="0 0 121.000000 121.000000"
 preserveAspectRatio="xMidYMid meet">

<g transform="translate(0.000000,121.000000) scale(0.100000,-0.100000)"
fill="#000000" stroke="none">
<path d="M525 1204 c-239 -37 -432 -206 -501 -439 -24 -81 -24 -239 0 -320 61
-206 215 -360 421 -421 81 -24 239 -24 320 0 206 61 360 215 421 421 24 81 24
239 0 320 -61 204 -216 360 -416 419 -56 17 -193 28 -245 20z m188 -99 c259
-55 438 -313 399 -574 -43 -278 -306 -474 -581 -433 -278 43 -476 309 -432
583 32 205 196 381 394 424 82 18 137 18 220 0z"/>
<path d="M277 652 c-22 -25 -21 -75 1 -95 25 -22 75 -21 95 1 22 25 21 75 -1
95 -25 22 -75 21 -95 -1z"/>
<path d="M557 652 c-22 -25 -21 -75 1 -95 25 -22 75 -21 95 1 22 25 21 75 -1
95 -25 22 -75 21 -95 -1z"/>
<path d="M837 652 c-22 -25 -21 -75 1 -95 25 -22 75 -21 95 1 22 25 21 75 -1
95 -25 22 -75 21 -95 -1z"/>
</g>
</svg>
