<?xml version="1.0" standalone="no"?>
<!DOCTYPE svg PUBLIC "-//W3C//DTD SVG 20010904//EN"
 "http://www.w3.org/TR/2001/REC-SVG-20010904/DTD/svg10.dtd">
<svg version="1.0" xmlns="http://www.w3.org/2000/svg"
 width="225.000000pt" height="225.000000pt" viewBox="0 0 225.000000 225.000000"
 preserveAspectRatio="xMidYMid meet">

<g transform="translate(0.000000,225.000000) scale(0.100000,-0.100000)"
fill="#000000" stroke="none">
<path d="M733 2232 c-6 -4 53 -6 130 -4 224 4 247 8 57 10 -96 1 -180 -2 -187
-6z"/>
<path d="M1243 2233 c54 -2 139 -2 190 0 51 1 7 3 -98 3 -104 0 -146 -2 -92
-3z"/>
<path d="M389 2215 c-86 -7 -165 -18 -175 -25 -18 -11 -18 -11 1 -5 17 6 260
27 435 38 39 2 32 3 -25 4 -44 0 -150 -5 -236 -12z"/>
<path d="M1590 2224 c58 -8 148 -8 143 -1 -2 4 -41 6 -86 6 -45 -1 -71 -3 -57
-5z"/>
<path d="M1765 2214 c47 -7 113 -8 108 -1 -2 4 -32 6 -66 6 -34 -1 -53 -3 -42
-5z"/>
<path d="M585 2199 c-194 -12 -210 -17 -35 -11 85 3 166 8 180 13 30 9 29 9
-145 -2z"/>
<path d="M948 2203 c101 -2 263 -2 360 0 97 1 15 2 -183 2 -198 0 -278 -1
-177 -2z"/>
<path d="M1515 2199 c11 -4 56 -7 100 -7 96 0 81 5 -35 11 -47 2 -76 0 -65 -4z"/>
<path d="M1953 2199 c38 -5 77 -14 87 -19 10 -6 22 -10 27 -10 4 1 -5 8 -21
17 -17 8 -59 17 -95 19 l-66 3 68 -10z"/>
<path d="M1709 2187 c4 -4 37 -7 72 -5 l64 3 -72 5 c-40 3 -68 1 -64 -3z"/>
<path d="M320 2180 c-82 -8 -107 -16 -148 -47 -44 -33 -92 -101 -91 -127 1
-16 3 -13 10 9 12 44 65 102 112 127 25 13 69 23 110 26 37 3 70 9 73 13 3 5
4 8 2 8 -2 -1 -32 -5 -68 -9z"/>
<path d="M1859 2177 c5 -5 30 -7 57 -5 l49 3 -57 5 c-31 3 -53 1 -49 -3z"/>
<path d="M149 2156 c-19 -13 -47 -42 -62 -65 -36 -54 -35 -64 2 -14 16 22 46
54 67 71 46 38 43 41 -7 8z"/>
<path d="M1995 2161 c17 -4 40 -13 53 -20 12 -6 22 -9 22 -7 0 11 -60 36 -82
35 -19 -1 -18 -2 7 -8z"/>
<path d="M2107 2141 c18 -17 35 -31 38 -31 12 0 -6 19 -38 41 l-32 22 32 -32z"/>
<path d="M2100 2105 c13 -14 26 -25 28 -25 3 0 -5 11 -18 25 -13 14 -26 25
-28 25 -3 0 5 -11 18 -25z"/>
<path d="M2159 2085 c17 -34 31 -51 31 -39 0 7 -9 22 -21 35 -16 19 -18 20
-10 4z"/>
<path d="M2150 2028 c11 -24 20 -64 20 -90 0 -26 4 -49 8 -52 10 -6 -3 111
-16 146 -6 14 -15 29 -21 32 -6 4 -2 -13 9 -36z"/>
<path d="M46 2008 c-3 -13 -5 -43 -4 -68 1 -39 2 -37 8 20 8 68 7 86 -4 48z"/>
<path d="M2197 1970 c3 -36 7 -67 9 -69 7 -8 2 84 -6 109 -5 15 -6 -1 -3 -40z"/>
<path d="M70 1933 c-3 -29 -1 -48 3 -44 5 5 7 28 5 52 l-3 44 -5 -52z"/>
<path d="M36 1875 c-3 -9 -5 -38 -5 -63 2 -46 2 -46 9 13 7 64 6 76 -4 50z"/>
<path d="M2207 1838 c6 -73 11 -83 12 -23 0 28 -3 56 -8 63 -5 8 -6 -8 -4 -40z"/>
<path d="M60 1803 c-3 -40 -1 -68 3 -64 4 4 7 37 5 72 l-3 64 -5 -72z"/>
<path d="M2181 1808 c0 -37 2 -69 7 -71 4 -3 6 18 4 46 -5 86 -9 96 -11 25z"/>
<path d="M24 1747 c-3 -8 -4 -49 -2 -93 l3 -79 5 93 c5 92 4 104 -6 79z"/>
<path d="M2220 1672 l5 -87 3 79 c2 44 -1 83 -5 87 -4 4 -6 -31 -3 -79z"/>
<path d="M52 1650 c-1 -41 -5 -86 -7 -100 l-6 -25 11 24 c6 14 9 59 7 100 l-3
76 -2 -75z"/>
<path d="M2191 1650 c0 -41 3 -80 7 -87 4 -7 6 20 4 60 -4 102 -10 115 -11 27z"/>
<path d="M908 1653 c-33 -21 -62 -72 -55 -98 3 -15 5 -13 6 7 0 15 14 42 30
60 l29 33 374 5 373 5 -365 2 c-326 2 -368 1 -392 -14z"/>
<path d="M1685 1660 c27 -12 43 -12 25 0 -8 5 -22 9 -30 9 -10 0 -8 -3 5 -9z"/>
<path d="M504 1626 c-30 -30 -34 -40 -34 -84 0 -63 33 -107 92 -122 22 -6 42
-9 44 -7 3 2 -15 9 -40 16 -59 15 -86 49 -86 110 0 60 31 101 86 111 l39 8
-33 1 c-26 1 -42 -7 -68 -33z"/>
<path d="M618 1653 c7 -3 16 -2 19 1 4 3 -2 6 -13 5 -11 0 -14 -3 -6 -6z"/>
<path d="M672 1623 c34 -35 44 -81 29 -125 -8 -21 -8 -29 -1 -22 35 35 13 142
-34 166 -17 9 -16 5 6 -19z"/>
<path d="M1748 1625 c44 -68 35 -147 -21 -187 -32 -23 -36 -23 -402 -29 l-370
-5 372 0 c359 1 373 2 400 22 66 48 79 145 26 202 l-25 27 20 -30z"/>
<path d="M952 1603 c-7 -3 -19 -18 -27 -33 -18 -34 -7 -73 24 -89 13 -7 139
-10 373 -9 l353 3 -362 5 c-199 3 -363 7 -366 10 -2 3 -10 16 -17 29 -10 20
-9 27 8 50 l19 26 356 3 c346 2 357 2 377 -18 24 -24 25 -47 4 -80 l-16 -25
21 24 c28 31 26 56 -4 86 l-24 25 -353 -1 c-194 0 -359 -3 -366 -6z"/>
<path d="M16 1555 c-3 -9 -5 -71 -4 -138 l2 -122 5 135 c3 74 5 136 5 138 -1
2 -4 -4 -8 -13z"/>
<path d="M2228 1467 c4 -157 9 -175 10 -42 1 66 -2 125 -6 132 -4 6 -6 -35 -4
-90z"/>
<path d="M851 1514 c-1 -11 6 -29 15 -40 8 -10 12 -13 9 -6 -4 8 -11 26 -15
40 -7 22 -8 23 -9 6z"/>
<path d="M2204 1125 c0 -273 2 -345 6 -215 3 107 3 292 0 410 -4 156 -6 103
-6 -195z"/>
<path d="M45 1115 c0 -220 1 -309 2 -197 2 112 2 292 0 400 -1 108 -2 17 -2
-203z"/>
<path d="M645 1439 c-16 -10 -23 -19 -15 -19 8 0 26 9 40 20 32 25 14 25 -25
-1z"/>
<path d="M880 1446 c0 -3 9 -10 20 -16 11 -6 20 -8 20 -6 0 3 -9 10 -20 16
-11 6 -20 8 -20 6z"/>
<path d="M2231 1274 c0 -11 3 -14 6 -6 3 7 2 16 -1 19 -3 4 -6 -2 -5 -13z"/>
<path d="M13 1230 c0 -25 2 -35 4 -22 2 12 2 32 0 45 -2 12 -4 2 -4 -23z"/>
<path d="M933 1250 c-32 -13 -29 -22 3 -10 14 6 138 10 278 10 247 0 254 -1
287 -23 69 -46 72 -149 6 -202 -18 -15 -22 -22 -10 -16 81 40 92 150 22 217
l-30 29 -267 2 c-147 1 -277 -2 -289 -7z"/>
<path d="M534 1235 c-18 -14 -17 -14 9 -5 122 44 213 -81 136 -186 l-21 -29
26 28 c73 78 14 207 -95 207 -19 0 -44 -7 -55 -15z"/>
<path d="M875 1204 c-9 -14 -15 -27 -13 -30 2 -2 12 10 22 26 21 37 15 40 -9
4z"/>
<path d="M485 1190 c-18 -35 -19 -97 -1 -128 27 -50 113 -79 155 -53 10 6 1 8
-26 4 -103 -14 -167 83 -118 177 9 17 13 30 11 30 -3 0 -12 -13 -21 -30z"/>
<path d="M944 1177 c-17 -15 -26 -33 -26 -50 0 -27 26 -67 45 -67 5 0 -1 8
-13 18 -27 22 -30 67 -6 90 14 15 51 18 254 22 l237 6 -232 2 c-229 2 -232 2
-259 -21z"/>
<path d="M1457 1180 c28 -11 39 -53 24 -88 -11 -25 -10 -26 4 -8 8 11 15 29
15 41 0 28 -27 65 -48 64 -13 0 -11 -3 5 -9z"/>
<path d="M853 1125 c0 -22 2 -30 4 -17 2 12 2 30 0 40 -3 9 -5 -1 -4 -23z"/>
<path d="M860 1072 c1 -13 29 -45 57 -64 26 -16 51 -18 293 -16 l265 2 -273 6
-274 5 -34 37 c-19 21 -34 34 -34 30z"/>
<path d="M1215 1060 l-240 -6 237 -2 c150 -1 239 2 243 8 3 6 5 9 3 8 -2 -1
-111 -5 -243 -8z"/>
<path d="M12 1000 c0 -14 2 -19 5 -12 2 6 2 18 0 25 -3 6 -5 1 -5 -13z"/>
<path d="M2232 960 c0 -14 2 -19 5 -12 2 6 2 18 0 25 -3 6 -5 1 -5 -13z"/>
<path d="M12 835 c0 -71 2 -138 6 -147 4 -10 6 38 4 105 -4 174 -9 194 -10 42z"/>
<path d="M2232 808 c-1 -64 -5 -125 -8 -135 -5 -17 -5 -17 6 -1 7 11 9 61 7
135 l-3 118 -2 -117z"/>
<path d="M935 836 c-16 -7 -39 -24 -50 -37 -18 -21 -16 -20 13 3 41 34 89 41
241 37 102 -3 124 -7 148 -25 66 -49 66 -164 0 -204 -28 -18 -51 -20 -187 -20
-135 0 -159 3 -186 19 -38 23 -59 77 -50 130 4 25 2 31 -4 21 -26 -41 -3 -121
46 -159 25 -19 39 -21 194 -21 156 0 169 1 195 22 56 44 70 123 32 179 -39 58
-74 69 -227 69 -90 -1 -145 -5 -165 -14z"/>
<path d="M544 826 c-49 -22 -74 -61 -74 -118 0 -43 4 -54 34 -84 19 -19 42
-34 52 -34 13 1 9 5 -11 14 -42 18 -65 57 -65 109 0 58 28 93 88 111 26 8 38
15 27 15 -11 0 -34 -6 -51 -13z"/>
<path d="M635 818 c39 -21 65 -52 71 -84 7 -41 0 -66 -34 -106 -22 -26 -23
-29 -5 -20 23 13 53 69 53 100 0 50 -53 122 -89 122 -12 -1 -12 -3 4 -12z"/>
<path d="M957 773 c-3 -5 62 -8 143 -8 81 0 146 3 143 8 -2 4 -67 7 -143 7
-76 0 -141 -3 -143 -7z"/>
<path d="M920 736 c-9 -25 0 -66 16 -66 2 0 0 9 -6 20 -8 14 -8 26 0 41 7 11
9 23 6 26 -3 3 -10 -6 -16 -21z"/>
<path d="M1271 729 c9 -18 7 -26 -9 -48 l-19 -26 -151 0 c-82 0 -145 -3 -139
-7 14 -9 269 -11 292 -2 26 10 47 61 35 84 -6 11 -13 20 -16 20 -2 0 0 -10 7
-21z"/>
<path d="M47 620 c6 -110 11 -125 12 -30 0 41 -4 84 -8 95 -4 11 -6 -18 -4
-65z"/>
<path d="M2196 673 c-6 -33 -17 -307 -10 -278 5 25 22 299 19 303 -2 2 -6 -9
-9 -25z"/>
<path d="M27 510 c3 -74 8 -138 12 -142 6 -7 1 81 -12 232 -3 25 -2 -16 0 -90z"/>
<path d="M2220 563 c-3 -45 -1 -78 3 -74 4 4 7 41 5 82 l-3 74 -5 -82z"/>
<path d="M593 593 c9 -2 25 -2 35 0 9 3 1 5 -18 5 -19 0 -27 -2 -17 -5z"/>
<path d="M60 442 l5 -67 3 59 c2 32 -1 63 -5 67 -4 4 -6 -22 -3 -59z"/>
<path d="M2205 365 c-4 -59 -5 -108 -2 -111 2 -3 8 43 12 101 4 59 5 108 2
111 -2 3 -8 -43 -12 -101z"/>
<path d="M71 305 c3 -36 9 -68 12 -71 8 -8 -4 120 -12 129 -4 4 -4 -22 0 -58z"/>
<path d="M2174 356 c-3 -8 -4 -31 -2 -52 3 -36 4 -35 8 14 5 53 4 63 -6 38z"/>
<path d="M41 310 c-1 -52 13 -108 34 -135 12 -16 12 -13 -2 20 -9 22 -19 67
-23 100 -7 57 -7 57 -9 15z"/>
<path d="M2161 244 c0 -11 3 -14 6 -6 3 7 2 16 -1 19 -3 4 -6 -2 -5 -13z"/>
<path d="M2187 219 c-11 -42 -63 -106 -110 -133 -24 -14 -68 -30 -98 -35 -51
-8 -52 -9 -14 -10 49 -1 119 30 163 72 37 35 75 102 69 120 -2 7 -6 0 -10 -14z"/>
<path d="M90 211 c0 -6 4 -13 10 -16 6 -3 7 1 4 9 -7 18 -14 21 -14 7z"/>
<path d="M2150 211 c0 -6 -19 -33 -42 -59 -24 -26 -34 -40 -23 -32 37 28 81
87 71 97 -3 3 -6 1 -6 -6z"/>
<path d="M123 160 c20 -29 94 -80 116 -80 9 1 0 8 -19 16 -19 8 -53 32 -74 52
-26 25 -34 29 -23 12z"/>
<path d="M90 147 c0 -2 15 -16 33 -33 l32 -29 -29 33 c-28 30 -36 37 -36 29z"/>
<path d="M2025 95 c-16 -8 -23 -14 -14 -15 8 0 24 7 35 15 23 18 18 18 -21 0z"/>
<path d="M175 75 c25 -20 81 -35 125 -34 26 1 20 4 -22 10 -32 4 -72 15 -90
24 -29 14 -31 14 -13 0z"/>
<path d="M261 76 c2 -2 24 -6 48 -9 29 -4 40 -2 30 4 -13 8 -88 14 -78 5z"/>
<path d="M1911 71 c-10 -6 1 -8 30 -4 24 3 46 7 48 9 10 9 -65 3 -78 -5z"/>
<path d="M440 60 c130 -13 222 -17 208 -9 -7 3 -76 9 -153 12 -109 4 -121 3
-55 -3z"/>
<path d="M1695 60 l-80 -6 70 -1 c39 0 102 3 140 7 l70 7 -60 0 c-33 -1 -96
-4 -140 -7z"/>
<path d="M349 37 c4 -5 32 -7 62 -5 l54 3 -62 5 c-34 3 -58 1 -54 -3z"/>
<path d="M903 43 c125 -2 329 -2 455 0 125 1 22 2 -228 2 -250 0 -353 -1 -227
-2z"/>
<path d="M1845 40 l-60 -7 55 -1 c30 -1 62 3 70 8 8 5 11 9 5 8 -5 -1 -37 -4
-70 -8z"/>
<path d="M479 27 c4 -4 43 -7 87 -5 l79 3 -87 5 c-48 3 -83 1 -79 -3z"/>
<path d="M1695 30 l-80 -6 83 -2 c49 -1 82 2 82 8 0 6 -1 9 -2 8 -2 -1 -39 -5
-83 -8z"/>
<path d="M663 18 c7 -4 57 -7 112 -6 111 1 95 6 -37 10 -47 2 -81 0 -75 -4z"/>
<path d="M1485 20 l-110 -6 105 -2 c58 -1 112 3 120 8 8 5 11 9 5 8 -5 -1 -59
-5 -120 -8z"/>
</g>
</svg>
