<?xml version="1.0" standalone="no"?>
<!DOCTYPE svg PUBLIC "-//W3C//DTD SVG 20010904//EN"
 "http://www.w3.org/TR/2001/REC-SVG-20010904/DTD/svg10.dtd">
<svg version="1.0" xmlns="http://www.w3.org/2000/svg"
 width="225.000000pt" height="225.000000pt" viewBox="0 0 225.000000 225.000000"
 preserveAspectRatio="xMidYMid meet">

<g transform="translate(0.000000,225.000000) scale(0.100000,-0.100000)"
fill="#000000" stroke="none">
<path d="M988 2041 c-31 -10 -77 -30 -101 -44 -61 -36 -160 -145 -190 -209
-88 -189 -47 -409 102 -551 188 -180 477 -182 661 -6 110 106 155 222 148 379
-4 87 -9 107 -41 175 -62 129 -176 225 -312 261 -71 19 -198 17 -267 -5z"/>
<path d="M580 1164 c-112 -30 -190 -104 -249 -236 -79 -178 -106 -493 -52
-613 28 -63 72 -109 136 -143 l50 -27 665 0 665 0 49 24 c58 29 108 77 138
134 47 89 33 391 -26 565 -62 184 -176 291 -326 308 -54 5 -57 4 -145 -52
-126 -81 -233 -117 -350 -117 -134 0 -216 28 -384 133 -70 44 -88 46 -171 24z"/>
</g>
</svg>
