<?xml version="1.0" standalone="no"?>
<!DOCTYPE svg PUBLIC "-//W3C//DTD SVG 20010904//EN"
 "http://www.w3.org/TR/2001/REC-SVG-20010904/DTD/svg10.dtd">
<svg version="1.0" xmlns="http://www.w3.org/2000/svg"
 width="225.000000pt" height="225.000000pt" viewBox="0 0 225.000000 225.000000"
 preserveAspectRatio="xMidYMid meet">

<g transform="translate(0.000000,225.000000) scale(0.100000,-0.100000)"
fill="#000000" stroke="none">
<path d="M525 2169 c-64 -20 -89 -56 -95 -138 l-5 -66 -120 -5 c-138 -6 -169
-18 -207 -84 l-23 -41 0 -745 0 -745 24 -41 c13 -24 41 -52 65 -65 l41 -24
507 -3 c349 -2 514 1 528 8 24 13 26 45 4 54 -9 3 -242 6 -519 6 -370 0 -511
3 -530 12 -55 25 -55 19 -55 628 l0 560 985 0 985 0 0 -299 c0 -165 3 -306 6
-315 8 -20 38 -21 53 -2 9 10 11 141 9 492 l-3 479 -23 41 c-38 66 -69 78
-207 84 l-120 5 -5 65 c-3 36 -12 75 -19 86 -38 58 -133 75 -190 35 -41 -30
-53 -54 -60 -126 l-6 -60 -140 0 -140 0 -5 60 c-8 97 -55 148 -135 148 -80 0
-127 -51 -135 -148 l-5 -60 -140 0 -140 0 -6 60 c-7 70 -19 96 -56 123 -36 25
-80 33 -118 21z m94 -85 c19 -24 21 -40 21 -151 l0 -125 -30 -30 c-25 -24 -36
-29 -58 -24 -55 13 -62 35 -62 182 0 121 2 136 20 154 30 30 83 27 109 -6z
m560 0 c19 -24 21 -40 21 -150 0 -67 -3 -130 -6 -139 -4 -8 -20 -23 -36 -31
-25 -13 -35 -13 -59 -3 -17 6 -34 20 -39 30 -6 10 -10 74 -10 142 0 111 2 127
21 151 15 19 30 26 54 26 24 0 39 -7 54 -26z m561 4 c18 -20 20 -35 20 -154 0
-145 -8 -167 -62 -180 -22 -5 -33 0 -58 24 l-30 30 0 125 c0 111 2 127 21 151
27 34 79 36 109 4z m-1315 -246 c7 -100 67 -158 154 -149 33 4 52 13 79 41 33
32 36 42 40 101 l4 65 144 0 144 0 0 -57 c0 -39 6 -68 19 -89 21 -34 75 -64
116 -64 41 0 95 30 116 64 13 21 19 50 19 89 l0 57 144 0 144 0 4 -65 c3 -51
9 -70 28 -91 38 -40 78 -57 122 -51 77 10 117 59 123 150 l3 52 107 3 106 3
35 -35 34 -34 0 -146 0 -146 -985 0 -985 0 0 146 0 146 34 34 35 35 106 -3
107 -3 3 -53z"/>
<path d="M390 1287 c-23 -12 -25 -18 -28 -101 -4 -122 0 -126 130 -126 128 0
138 8 138 115 0 67 -3 79 -25 100 -22 23 -32 25 -107 25 -47 0 -94 -6 -108
-13z m178 -109 l-3 -53 -72 -3 -73 -3 0 56 0 55 76 0 75 0 -3 -52z"/>
<path d="M815 1288 c-32 -18 -35 -28 -35 -115 0 -107 8 -113 137 -113 123 0
133 9 133 119 0 74 -2 81 -26 100 -22 17 -41 21 -108 21 -44 0 -90 -6 -101
-12z m175 -113 l0 -55 -75 0 -75 0 0 55 0 55 75 0 75 0 0 -55z"/>
<path d="M1226 1279 c-24 -19 -26 -26 -26 -100 0 -110 10 -119 133 -119 129 0
137 6 137 113 0 45 -4 87 -8 93 -16 24 -54 34 -130 34 -65 0 -84 -4 -106 -21z
m184 -104 l0 -55 -75 0 -75 0 0 55 0 55 75 0 75 0 0 -55z"/>
<path d="M1645 1276 c-22 -22 -25 -33 -25 -101 0 -107 10 -115 138 -115 128 0
132 4 132 122 0 109 -3 112 -126 116 -89 4 -94 3 -119 -22z m185 -101 l0 -56
-72 3 -73 3 -3 53 -3 52 75 0 76 0 0 -55z"/>
<path d="M377 962 c-13 -14 -17 -39 -17 -104 0 -109 3 -112 126 -116 89 -4 94
-3 119 22 22 22 25 33 25 99 0 64 -3 76 -23 95 -21 19 -35 22 -119 22 -79 0
-98 -3 -111 -18z m191 -99 l3 -53 -75 0 -76 0 0 55 0 56 73 -3 72 -3 3 -52z"/>
<path d="M800 960 c-17 -17 -20 -33 -20 -98 0 -111 6 -116 122 -120 83 -3 96
-1 121 18 25 20 27 26 27 101 0 111 -9 119 -135 119 -82 0 -98 -3 -115 -20z
m190 -95 l0 -55 -75 0 -75 0 0 55 0 55 75 0 75 0 0 -55z"/>
<path d="M1220 960 c-17 -17 -20 -33 -20 -99 0 -74 2 -81 27 -101 31 -24 51
-23 67 3 9 16 7 22 -11 34 -19 13 -23 25 -23 69 l0 54 84 0 c68 0 85 3 90 16
13 33 -12 44 -105 44 -76 0 -92 -3 -109 -20z"/>
<path d="M1590 958 c-328 -103 -428 -512 -184 -753 177 -174 458 -172 635 4
248 248 133 667 -206 756 -80 20 -167 18 -245 -7z m201 -48 c122 -23 228 -106
283 -220 28 -59 31 -74 31 -165 0 -87 -4 -107 -27 -158 -35 -74 -121 -160
-195 -195 -51 -24 -70 -27 -158 -27 -89 0 -107 3 -163 29 -44 20 -80 48 -121
92 -89 94 -123 204 -101 325 29 158 146 281 300 315 70 16 86 16 151 4z"/>
<path d="M1792 538 l-142 -143 -67 68 c-36 37 -74 67 -83 67 -15 0 -30 -18
-30 -37 0 -14 165 -173 179 -173 9 0 88 71 175 159 159 159 180 192 131 199
-14 2 -61 -39 -163 -140z"/>
<path d="M376 644 c-12 -11 -16 -36 -16 -99 0 -113 3 -115 135 -115 128 0 135
6 135 115 0 109 -7 115 -135 115 -81 0 -107 -3 -119 -16z m194 -99 l0 -55 -75
0 -75 0 0 55 0 55 75 0 75 0 0 -55z"/>
<path d="M797 642 c-25 -28 -24 -172 1 -195 28 -26 212 -24 235 1 25 28 24
172 -1 195 -28 26 -212 24 -235 -1z m193 -97 l0 -55 -75 0 -75 0 0 55 0 55 75
0 75 0 0 -55z"/>
</g>
</svg>
