<?xml version="1.0" standalone="no"?>
<!DOCTYPE svg PUBLIC "-//W3C//DTD SVG 20010904//EN"
 "http://www.w3.org/TR/2001/REC-SVG-20010904/DTD/svg10.dtd">
<svg version="1.0" xmlns="http://www.w3.org/2000/svg"
 width="225.000000pt" height="225.000000pt" viewBox="0 0 225.000000 225.000000"
 preserveAspectRatio="xMidYMid meet">

<g transform="translate(0.000000,225.000000) scale(0.100000,-0.100000)"
fill="#000000" stroke="none">
<path d="M1030 2236 c-101 -23 -201 -89 -266 -178 -18 -25 -22 -26 -69 -18
-128 21 -274 -30 -369 -129 -92 -97 -136 -231 -117 -351 9 -53 8 -56 -17 -74
-138 -100 -212 -275 -183 -431 21 -115 89 -222 183 -291 25 -18 26 -21 17 -74
-12 -73 4 -168 41 -245 36 -75 128 -166 202 -200 71 -32 179 -48 243 -36 48 9
51 9 69 -17 68 -95 177 -163 291 -183 160 -28 331 45 431 183 18 26 21 26 77
17 218 -35 440 133 476 361 7 41 7 85 2 120 -9 53 -8 56 17 74 135 98 209 269
184 421 -20 120 -79 219 -179 296 -30 23 -31 26 -23 74 11 66 -4 171 -34 240
-35 77 -124 168 -201 205 -74 35 -179 52 -250 40 -47 -8 -51 -7 -70 18 -68 92
-170 159 -273 181 -65 14 -111 13 -182 -3z m193 -142 c65 -22 130 -83 166
-156 17 -34 31 -67 31 -75 0 -11 7 -10 38 3 70 30 146 46 192 40 98 -13 183
-75 232 -169 32 -62 30 -171 -5 -254 -18 -44 -22 -63 -13 -63 7 0 40 -14 74
-31 76 -38 137 -104 157 -172 48 -163 -24 -304 -189 -371 l-54 -22 18 -41 c27
-61 42 -147 35 -198 -15 -97 -117 -210 -211 -234 -66 -17 -102 -13 -191 18
-57 20 -83 25 -83 16 0 -6 -14 -39 -31 -73 -115 -230 -413 -230 -528 0 -17 34
-31 67 -31 74 0 9 -19 6 -67 -13 -166 -64 -309 -16 -388 128 -40 74 -41 174
-2 267 18 43 22 62 13 62 -7 0 -40 14 -74 31 -111 55 -172 151 -172 268 1 126
72 221 204 275 l54 22 -18 41 c-27 61 -42 147 -35 198 16 101 106 200 212 231
66 19 152 10 223 -25 24 -11 44 -20 45 -18 1 1 9 23 19 49 61 164 221 246 379
192z"/>
<path d="M1245 1220 c-132 -132 -242 -240 -245 -240 -3 0 -57 49 -120 110 -63
60 -120 109 -126 110 -12 0 -84 -75 -84 -88 0 -11 314 -322 325 -322 6 0 140
130 299 289 259 259 287 290 277 309 -11 21 -67 72 -79 72 -4 0 -115 -108
-247 -240z"/>
</g>
</svg>
